<?xml version="1.0" encoding="UTF-8"?>
<svg version="1.1" xmlns="http://www.w3.org/2000/svg" width="1083" height="787">
<path d="M0 0 C357.39 0 714.78 0 1083 0 C1083 259.71 1083 519.42 1083 787 C725.61 787 368.22 787 0 787 C0 527.29 0 267.58 0 0 Z " fill="#000000" transform="translate(0,0)"/>
<path d="M0 0 C4.31613863 0.5901223 7.33093554 2.14059219 11.05859375 4.359375 C11.63514206 4.69979324 12.21169037 5.04021149 12.80570984 5.39094543 C14.68705655 6.50390326 16.56221372 7.62686614 18.4375 8.75 C19.75268997 9.5305451 21.0682869 10.31040486 22.38427734 11.08959961 C25.02876413 12.65675923 27.67093572 14.22770687 30.31103516 15.80224609 C34.37485726 18.22528353 38.44999627 20.62890734 42.52636719 23.03076172 C49.25621366 26.99760283 55.97440813 30.98411022 62.69140625 34.97265625 C78.28083737 44.2281709 93.9133695 53.39778163 109.66845703 62.36889648 C119.50677835 67.97301506 129.2759709 73.68337177 139.015625 79.45703125 C145.74973208 83.44790675 152.49776393 87.4149063 159.25 91.375 C159.85832672 91.73182861 160.46665344 92.08865723 161.09341431 92.45629883 C171.15145076 98.35361219 181.239 104.19838739 191.35058594 110.00341797 C193.30881923 111.12890889 195.26398551 112.25975828 197.21557617 113.39672852 C199.08084789 114.47075213 200.96174226 115.51806354 202.85668945 116.53881836 C208.04509945 119.41554663 211.07194554 121.22517515 212.8125 127.1875 C213.17859375 128.321875 213.5446875 129.45625 213.921875 130.625 C214.27765625 131.73875 214.6334375 132.8525 215 134 C215.82278076 135.90966399 216.67556633 137.80677318 217.5625 139.6875 C219.48782625 143.83804756 221.24840977 148.0204553 222.91821289 152.27954102 C224.01036769 155.02607248 225.13965561 157.75413634 226.28125 160.48046875 C239.35174012 191.78879635 239.35174012 191.78879635 244.03125 205.359375 C245.10905673 208.29726755 246.430357 210.98506072 247.8984375 213.7421875 C250.04744643 218.14689374 251.74619824 222.75621145 253.53515625 227.31640625 C254.53862873 229.83980504 255.57586495 232.30265812 256.68359375 234.77734375 C258 238 258 238 258 241 C265.74065763 239.92647814 273.35383687 238.5359809 281 236.9375 C288.68390611 235.34272703 296.14270857 234.28676246 304 234 C304.64324219 234.99515625 305.28648437 235.9903125 305.94921875 237.015625 C311.12286275 245.01690626 316.30521048 253.01242961 321.5 261 C323.66695741 264.33314441 325.83357194 267.66651151 328 271 C328.46905762 271.72155273 328.93811523 272.44310547 329.42138672 273.18652344 C346.74463813 299.84823627 363.93080314 326.38830492 378 354.9375 C379.51792815 358.01056042 381.03864926 361.08221582 382.5625 364.15234375 C382.93552246 364.90397797 383.30854492 365.65561218 383.69287109 366.43002319 C386.07406216 371.20519137 388.53240976 375.93110829 391.0625 380.62890625 C394.73550046 387.4538067 398.22097761 394.36235019 401.66271973 401.30609131 C406.30935575 410.66659218 410.98663435 420.01194677 415.65491867 429.36166573 C417.44208509 432.94117617 419.22847788 436.5210686 421.01318359 440.10180664 C428.5528462 455.22766564 436.10655383 470.33632523 444.06887817 485.24580383 C450 496.41979942 450 496.41979942 450 499 C441.75 499 433.5 499 425 499 C422 493 422 493 422 490 C421.34 490 420.68 490 420 490 C416 481 416 481 415.17993164 479.08618164 C412.39673538 472.66614089 409.19526384 466.50243869 405.9375 460.3125 C399.87362182 448.70822624 393.96925856 437.02881469 388.125 425.3125 C387.72916718 424.51897125 387.33333435 423.7254425 386.92550659 422.90786743 C383.92241739 416.88555387 380.92181665 410.86199757 377.92373657 404.83718872 C373.66890948 396.28941038 369.36950851 387.77027452 364.9375 379.3125 C364.17324707 377.85058228 364.17324707 377.85058228 363.39355469 376.35913086 C359.64984606 369.20983585 355.86253106 362.08584042 352 355 C347.79696439 356.51120382 344.13137456 358.62130609 340.375 361 C339.70186768 361.42297363 339.02873535 361.84594727 338.33520508 362.28173828 C330.77986439 367.0715579 323.36213734 372.0709943 315.93206787 377.05175781 C306.2776985 383.52229306 296.53103693 389.82713174 286.65625 395.95703125 C283.17072466 397.82270192 283.17072466 397.82270192 281.50083923 401.14874268 C281.41329124 402.48905548 281.41329124 402.48905548 281.32397461 403.85644531 C281.25050812 404.87609375 281.17704163 405.89574219 281.10134888 406.94628906 C281.00284134 408.62029785 281.00284134 408.62029785 280.90234375 410.328125 C280.78353348 412.06932617 280.78353348 412.06932617 280.662323 413.84570312 C280.40682267 417.64636128 280.1719223 421.44798847 279.9375 425.25 C279.76688482 427.85000175 279.59525077 430.44993683 279.42260742 433.04980469 C278.33331637 449.67048486 277.35849093 466.29940047 276.59545898 482.93847656 C276.56114777 483.66365479 276.52683655 484.38883301 276.4914856 485.13598633 C276.40218003 487.0400473 276.31768584 488.94433232 276.23364258 490.84863281 C276 494 276 494 275 499 C267.74 499 260.48 499 253 499 C253.54593275 487.98003784 254.17778139 476.97060581 254.90234375 465.9609375 C255.02511185 464.08741356 255.02511185 464.08741356 255.15036011 462.17604065 C255.54459679 456.19672135 255.94632882 450.2181507 256.36809731 444.2407198 C256.60700752 440.84952368 256.84175687 437.45805012 257.07421875 434.06640625 C257.11969975 433.40448713 257.16518074 432.74256802 257.21203995 432.06059074 C257.75601379 424.04190353 258.12148674 416.06395436 258.14453125 408.02734375 C258.16617005 406.49754072 258.18897167 404.96775353 258.21313477 403.43798828 C258.25469963 400.77668318 258.20102135 398.18053286 258.08569336 395.51513672 C258.20901794 387.73746658 258.20901794 387.73746658 261.40737915 384.63467407 C265.27836029 381.69424145 269.51950934 379.4460147 273.81243896 377.18899536 C277.18808471 375.35424558 280.35402085 373.2355941 283.54296875 371.09765625 C284.80008337 370.26969476 286.05773935 369.44255467 287.31591797 368.61621094 C287.94769958 368.1994812 288.5794812 367.78275146 289.23040771 367.35339355 C291.25290294 366.01936037 293.27690212 364.68763556 295.30126953 363.35644531 C298.11880613 361.50349401 300.93584107 359.64978431 303.75244141 357.79541016 C309.98096459 353.69543 316.21404389 349.60240421 322.44961548 345.51315308 C324.34618108 344.26890672 326.24183757 343.02328396 328.13745117 341.77758789 C329.28689922 341.02352801 330.43639209 340.26953644 331.5859375 339.515625 C332.5867334 338.85852539 333.5875293 338.20142578 334.61865234 337.52441406 C337 336 337 336 339 335 C338.53720552 329.81513302 336.64296793 326.45544781 333.6875 322.3125 C332.76077682 320.96899303 331.83639754 319.62386702 330.9140625 318.27734375 C330.43098633 317.57464355 329.94791016 316.87194336 329.45019531 316.14794922 C327.06393785 312.61355643 324.81857048 308.99332223 322.5625 305.375 C317.15232226 296.73950645 311.58988619 288.20720536 306 279.6875 C305.58299835 279.05181091 305.1659967 278.41612183 304.73635864 277.76116943 C299.79941911 270.20703865 299.79941911 270.20703865 294.7421875 262.73364258 C293 260 293 260 293 258 C288.38887643 258.44127357 288.38887643 258.44127357 284.0847168 259.99023438 C281.64056843 261.17409638 279.58906973 261.46935147 276.89453125 261.78125 C275.91033203 261.90113281 274.92613281 262.02101563 273.91210938 262.14453125 C272.88923828 262.26183594 271.86636719 262.37914062 270.8125 262.5 C264.40358105 263.24914788 258.12447056 264.05909999 251.85253906 265.60302734 C249.54219292 266.09810152 247.35353908 266.15184123 245 266 C242.18711462 260.80698084 240.02456484 255.53474492 238 250 C235.78266319 243.87831045 235.78266319 243.87831045 233 238 C230.61977406 233.54571827 229.0142281 228.78571773 227.28125 224.0546875 C225.82988345 220.1235992 224.2855712 216.29505648 222.5 212.5 C220.10623056 207.4055676 218.17079209 202.19296746 216.23486328 196.91333008 C214.42532859 192.02129441 212.36595634 187.30238446 210.15234375 182.578125 C208.5587629 179.01282548 207.26551352 175.36249812 205.9609375 171.68359375 C203.73618888 165.47057627 201.2173052 159.42157167 198.4375 153.4375 C193 141.60590278 193 141.60590278 193 136 C192.36578125 135.773125 191.7315625 135.54625 191.078125 135.3125 C186.80735072 133.49145919 182.80778925 131.25003545 178.75 129 C177.86175537 128.50943115 176.97351074 128.0188623 176.05834961 127.51342773 C169.81086555 124.04632233 163.63125624 120.47714242 157.48706055 116.83081055 C152.04345429 113.60214985 146.56202275 110.44488411 141.0625 107.3125 C129.68459455 100.82926061 118.34152058 94.28643773 107.00341797 87.73388672 C104.33879493 86.19558784 101.67197838 84.6612119 99.00390625 83.12890625 C89.34520879 77.57390408 79.77212877 71.88578665 70.22436523 66.14233398 C61.72320824 61.02946475 53.21054244 55.93629395 44.68539429 50.86352539 C43.23066196 49.99748318 41.77641604 49.13062341 40.32266235 48.26293945 C38.28927276 47.04948432 36.25424174 45.83883092 34.21875 44.62890625 C33.60331833 44.26092422 32.98788666 43.8929422 32.35380554 43.5138092 C29.84123069 41.75396054 29.84123069 41.75396054 27 41 C27.56267578 42.68802734 27.56267578 42.68802734 28.13671875 44.41015625 C30.6328125 51.8984375 33.12890625 59.38671875 35.625 66.875 C36.03621094 68.07769531 36.44742187 69.28039062 36.87109375 70.51953125 C37.60601231 72.78531823 38.26931074 75.07600189 38.84765625 77.38671875 C39.26337891 78.95873047 39.26337891 78.95873047 39.6875 80.5625 C39.89761719 81.47128906 40.10773438 82.38007813 40.32421875 83.31640625 C43.1049572 87.76947691 47.43901998 89.58866366 52 92 C52.58431793 92.30952606 53.16863586 92.61905212 53.7706604 92.93795776 C58.42970617 95.3969218 63.11842312 97.79628137 67.8125 100.1875 C69.90577827 101.25624868 71.99851558 102.3260253 74.09025574 103.39778137 C75.38039873 104.05859259 76.67145086 104.71763305 77.96357727 105.3745575 C83.69483985 108.30593307 88.10928795 110.72033282 92.125 115.8125 C92.90230469 116.79089844 93.67960937 117.76929688 94.48046875 118.77734375 C95.32040209 119.85149245 96.16024302 120.92571341 97 122 C97.89126306 123.12682761 98.78320435 124.25311907 99.67578125 125.37890625 C103.76851114 130.55322899 107.82122317 135.75625168 111.82299805 141.0012207 C116.28649046 146.84851005 120.89257552 152.53366622 125.62890625 158.1640625 C128.47944293 161.57343586 131.25041704 165.04089964 134.015625 168.51953125 C136.09224486 171.11530608 138.19954579 173.6837347 140.3125 176.25 C143.68021241 180.3545794 146.98121789 184.50430352 150.25 188.6875 C154.27611101 193.83944279 158.36566711 198.93452754 162.5 204 C167.00763161 209.52337068 171.44842687 215.09184494 175.8359375 220.7109375 C179.33776455 225.18436975 182.90822679 229.59857554 186.5 234 C192.42468348 241.26335866 198.23155531 248.6123062 204 256 C209.82658932 263.45616265 215.68792878 270.8700908 221.703125 278.17578125 C224.25772268 281.3168937 226.75746105 284.49712139 229.25 287.6875 C233.3404927 292.92089247 237.49235958 298.10012438 241.6875 303.25 C242.24477783 303.93425049 242.80205566 304.61850098 243.3762207 305.32348633 C244.44540422 306.63596283 245.51465555 307.94838408 246.58398438 309.26074219 C249.75153694 313.15137054 252.8903648 317.06293143 256 321 C256.54897949 321.69480469 257.09795898 322.38960938 257.66357422 323.10546875 C259.57184238 325.52517478 261.4740738 327.94952294 263.375 330.375 C263.9949585 331.16116699 264.61491699 331.94733398 265.25366211 332.75732422 C266.12970093 333.87905029 266.12970093 333.87905029 267.0234375 335.0234375 C267.81113525 336.02769775 267.81113525 336.02769775 268.61474609 337.05224609 C269.97597787 338.96622338 271.01162446 340.87324352 272 343 C266.87008301 347.68788333 261.74728311 352.08695618 256 356 C251.84084478 351.99603714 248.1549434 347.71533399 244.5 343.25 C243.88833984 342.50556641 243.27667969 341.76113281 242.64648438 340.99414062 C237.93231551 335.22158987 233.39459815 329.3292661 228.90087891 323.38452148 C224.44663497 317.51817022 219.79825523 311.83137398 215.09204102 306.16625977 C211.01470925 301.25266879 207.03724272 296.27366081 203.11279297 291.23754883 C199.63101718 286.77871165 196.07733451 282.38243134 192.5 278 C187.99232786 272.47666343 183.55157233 266.90815403 179.1640625 261.2890625 C175.12433367 256.12848405 170.98855951 251.04903597 166.84472656 245.97192383 C162.80073008 241.00834516 158.83140873 235.99103617 154.8894043 230.94628906 C151.36033442 226.43767732 147.7519888 221.99886384 144.11328125 217.578125 C141.38410439 214.24863012 138.70305256 210.88193575 136.01953125 207.515625 C133.92827612 204.91065729 131.81043584 202.32919736 129.6875 199.75 C126.31978759 195.6454206 123.01878211 191.49569648 119.75 187.3125 C115.18610745 181.47239442 110.53072108 175.71235415 105.84350586 169.97094727 C102.28319901 165.60184019 98.77876048 161.19398712 95.3125 156.75 C90.34493261 150.38272126 85.20988377 144.17049141 80 138 C79.25234375 138.75023437 78.5046875 139.50046875 77.734375 140.2734375 C76.19305711 141.81035162 74.64564968 143.34138628 73.078125 144.8515625 C68.4296449 149.36098551 64.33812883 154.16383957 60.28515625 159.2109375 C58.09539199 161.88357285 55.82888802 164.44834878 53.5 167 C49.47273726 171.41585827 45.68646422 175.99266553 41.9453125 180.65234375 C40 183 40 183 38.1796875 184.50390625 C36.75988272 185.98562234 36.75988272 185.98562234 37.0078125 188.31640625 C38.29976026 191.81076889 40.41530873 194.21645085 42.875 196.9375 C43.88757505 198.09446871 44.89792726 199.25338594 45.90625 200.4140625 C46.42316406 201.00735352 46.94007813 201.60064453 47.47265625 202.21191406 C49.86261264 205.00987451 52.12045666 207.9051078 54.375 210.8125 C58.35470757 215.92711877 62.4011004 220.98038552 66.5 226 C71.00480645 231.51961095 75.44295979 237.08422167 79.82714844 242.69995117 C83.96192751 247.9825293 88.19585531 253.18193499 92.43652344 258.37963867 C95.79748823 262.50413796 99.09813632 266.66669669 102.34375 270.8828125 C104.27412304 273.350412 106.25885612 275.76868085 108.25 278.1875 C111.70814147 282.39128488 115.08911353 286.64651779 118.4375 290.9375 C122.74477451 296.45222482 127.17063675 301.84564492 131.66796875 307.20703125 C137.09508906 313.70684871 142.31463095 320.36930912 147.5 327.0625 C148.16902344 327.92186157 148.16902344 327.92186157 148.8515625 328.79858398 C152 332.88326086 152 332.88326086 152 334 C144.79527075 333.2583367 137.65622841 332.23730455 130.5 331.125 C128.77414673 330.85828491 128.77414673 330.85828491 127.01342773 330.58618164 C119.43146372 329.40473547 111.87383778 328.12972377 104.32421875 326.75854492 C99.95399233 325.97942624 95.57083454 325.30030876 91.18359375 324.625 C82.24080133 323.23014143 73.33978662 321.6467246 64.43856812 320.01010132 C50.82242742 317.51084674 37.21096057 315.15598351 23.49804688 313.24243164 C17.27711822 312.37123717 11.14791852 311.28558182 5 310 C-7.39653605 307.50406187 -19.81597213 305.33163967 -32.32617188 303.48291016 C-41.2486053 302.15648721 -50.12271491 300.5964004 -59 299 C-58.08102982 306.21496097 -57.15667455 313.42921902 -56.22900391 320.64306641 C-55.91566192 323.08432309 -55.60344183 325.52572409 -55.29248047 327.96728516 C-53.36461722 343.09695627 -51.2527738 358.18073913 -48.89257812 373.24902344 C-47.7901783 380.29960926 -46.80355835 387.36181522 -45.875 394.4375 C-45.70959717 395.68466797 -45.54419434 396.93183594 -45.3737793 398.21679688 C-44.32657506 406.21419286 -43.37262484 414.2156097 -42.59521484 422.24389648 C-42.30341029 425.25175532 -41.96309843 428.21561059 -41.453125 431.1953125 C-41.02935938 433.81827558 -40.89732885 436.22370429 -40.9375 438.875 C-40.95103516 440.04675781 -40.95103516 440.04675781 -40.96484375 441.2421875 C-40.98224609 442.11230469 -40.98224609 442.11230469 -41 443 C-42.99866686 443.34123581 -44.99902542 443.6725678 -47 444 C-48.11375 444.185625 -49.2275 444.37125 -50.375 444.5625 C-54.31292864 445.03776725 -58.03629479 445.0287225 -62 445 C-62.16081055 443.74791748 -62.32162109 442.49583496 -62.48730469 441.20581055 C-66.27940156 411.50392537 -66.27940156 411.50392537 -70.53027344 381.86547852 C-71.95401695 372.46510187 -73.23565275 363.04786391 -74.5 353.625 C-74.60560242 352.8384201 -74.71120483 352.05184021 -74.82000732 351.24142456 C-75.2412341 348.10307096 -75.66223846 344.96468768 -76.08282471 341.82624817 C-77.10340494 334.21551654 -78.14111921 326.60722828 -79.1875 319 C-79.3421875 317.86900879 -79.496875 316.73801758 -79.65625 315.57275391 C-80.41223195 310.08613277 -81.21285753 304.61114671 -82.078125 299.140625 C-82.77427337 294.66533733 -83.30089181 290.26969891 -83.5625 285.75 C-83.47035029 282.05775042 -83.47035029 282.05775042 -85 279 C-85.04092937 276.66702567 -85.04241723 274.33294775 -85 272 C-83.35425434 271.97311849 -81.70838587 271.95365877 -80.0625 271.9375 C-79.14597656 271.92589844 -78.22945313 271.91429687 -77.28515625 271.90234375 C-75 272 -75 272 -74 273 C-71.51195418 273.43240677 -69.035669 273.81112164 -66.53515625 274.15625 C-65.78664902 274.2634436 -65.03814178 274.37063721 -64.26695251 274.4810791 C-61.86601228 274.82468034 -59.46435716 275.162872 -57.0625 275.5 C-54.66425077 275.83736252 -52.26621535 276.17596567 -49.86875916 276.5189209 C-48.37457378 276.73262979 -46.87991937 276.94308883 -45.38478088 277.15002441 C-40.22517542 277.88741229 -40.22517542 277.88741229 -38 279 C-36.08828459 279.32252867 -34.17026328 279.60803657 -32.25 279.875 C-27.73564568 280.54089174 -23.3194789 281.34504519 -18.875 282.375 C-10.69011895 284.18978885 -2.41549563 285.32073492 5.87939453 286.51245117 C13.12318364 287.55741228 20.3234889 288.72719428 27.51879883 290.06201172 C32.3658867 290.94150622 37.17935468 291.47821219 42.09375 291.7890625 C44 292 44 292 45 293 C46.86509573 293.22509776 48.73098444 293.4473444 50.6015625 293.62109375 C53.82180757 294.12982953 56.86696103 295.10153062 60 296 C71.93546491 298.57507333 84.75473273 301.30437567 97 301 C89.33411651 291.18288168 89.33411651 291.18288168 81.5 281.5 C76.71075335 275.67961661 72.06321542 269.75312 67.42041016 263.81591797 C59.68557397 253.92734602 51.93480368 244.05290024 44.00390625 234.3203125 C42.89843426 232.96354431 41.7929656 231.6067734 40.6875 230.25 C40.12764404 229.56325195 39.56778809 228.87650391 38.9909668 228.16894531 C35.41967318 223.77778273 31.91063962 219.34399245 28.4375 214.875 C23.6873852 208.77182749 18.69921612 202.89702743 13.62890625 197.05859375 C12.96205811 196.27911377 12.96205811 196.27911377 12.28173828 195.48388672 C11.07369079 194.08531288 9.83269386 192.71539567 8.58984375 191.34765625 C7 189 7 189 7.23657227 187.06079102 C8.07354318 184.8014781 9.0310446 183.47768197 10.625 181.6796875 C11.4308252 180.76074707 11.4308252 180.76074707 12.25292969 179.82324219 C12.82946289 179.18032227 13.40599609 178.53740234 14 177.875 C14.88413574 176.87194824 14.88413574 176.87194824 15.78613281 175.84863281 C19.78359797 171.32398151 23.84086205 166.8535229 27.8984375 162.3828125 C30.13113312 159.85131747 32.25644655 157.25260516 34.375 154.625 C38.53145231 149.48756682 42.93609809 144.63570017 47.421875 139.7890625 C52.68832068 134.09172581 57.60203367 128.39704194 62 122 C61.36964844 121.76539063 60.73929688 121.53078125 60.08984375 121.2890625 C53.04860396 118.35150355 46.30710682 114.73916772 39.5234375 111.2578125 C37.28851286 110.14380981 35.03951118 109.12005678 32.75 108.125 C27.62043894 105.77032861 23.39596312 103.59296722 21.140625 98.19140625 C19.98584241 94.8163679 19.20713441 91.40442685 18.48120117 87.91625977 C17.69803232 84.79749148 16.28469464 81.94110296 15 79 C14.10473714 76.25183795 13.33498959 73.47230452 12.5625 70.6875 C10.31769273 62.82599255 7.72288697 55.29817048 4 48 C0.91318877 55.14082331 -2.14701384 62.28087798 -5.0078125 69.515625 C-7.34446652 75.36645948 -9.80539052 81.16791959 -12.25390625 86.97265625 C-14.41568596 92.11620108 -16.48722568 97.27226788 -18.4375 102.5 C-19.99541095 106.58711207 -21.68243382 110.48877623 -23.6875 114.375 C-26.47382022 119.80062354 -28.91223874 125.33129539 -31.3125 130.9375 C-34.52273394 138.42847065 -37.8336246 145.86289262 -41.25 153.26171875 C-41.62408493 154.07211105 -41.99816986 154.88250336 -42.3835907 155.717453 C-44.25663926 159.7704092 -46.13632429 163.82017675 -48.02270508 167.86694336 C-51.61460655 175.60234424 -54.98743187 183.32141537 -57.96948242 191.31494141 C-59.2104165 194.54824938 -60.64464426 197.55792561 -62.25 200.625 C-63.71145573 203.4349123 -64.99776809 205.99330428 -66 209 C-112.2 209 -158.4 209 -206 209 C-206.99 211.97 -206.99 211.97 -208 215 C-208.62705348 216.34150008 -209.29054595 217.66682034 -209.99609375 218.96875 C-210.384021 219.69296143 -210.77194824 220.41717285 -211.17163086 221.16333008 C-211.58936768 221.93443115 -212.00710449 222.70553223 -212.4375 223.5 C-216.20503167 230.55593534 -219.87283866 237.65188596 -223.4375 244.8125 C-223.89366699 245.72813721 -224.34983398 246.64377441 -224.81982422 247.5871582 C-226.21483204 250.39063918 -227.60779319 253.19512708 -229 256 C-235.12888531 268.34783821 -241.32758093 280.6438268 -247.79638672 292.81762695 C-250.99500949 298.85245829 -254.02385623 304.9717595 -257.05419922 311.09228516 C-258.27799443 313.56072495 -259.51008257 316.02495858 -260.74365234 318.48852539 C-261.37418704 319.7487793 -262.0034141 321.00968827 -262.63134766 322.27124023 C-264.85977654 326.74379117 -267.12087072 331.19869306 -269.39453125 335.6484375 C-270.59637612 338.01561385 -271.79819897 340.38280139 -273 342.75 C-273.58869873 343.89388184 -274.17739746 345.03776367 -274.78393555 346.21630859 C-275.32961182 347.29477051 -275.87528809 348.37323242 -276.4375 349.484375 C-276.93121094 350.45084961 -277.42492187 351.41732422 -277.93359375 352.41308594 C-279.25407894 355.15000133 -279.25407894 355.15000133 -279 359 C-276.93434256 360.90882899 -276.93434256 360.90882899 -274.12109375 362.58203125 C-273.06639893 363.2589502 -272.0117041 363.93586914 -270.92504883 364.63330078 C-269.76262996 365.35985639 -268.6001111 366.08625203 -267.4375 366.8125 C-266.24606688 367.5713081 -265.05556525 368.3315806 -263.8659668 369.09326172 C-261.42794126 370.65231732 -258.98574453 372.20448651 -256.54003906 373.75146484 C-251.42952583 376.98945921 -246.37291252 380.30948124 -241.3125 383.625 C-239.42740387 384.8546582 -237.54198707 386.08382495 -235.65625 387.3125 C-231.82238725 389.81168931 -227.98907618 392.31172127 -224.15625 394.8125 C-216.02638277 400.11662268 -207.89630698 405.42032155 -199.75415039 410.70556641 C-187.65575329 418.55928216 -175.59345146 426.4677839 -163.53038025 434.37557983 C-147.17569797 445.09580233 -130.80508949 455.79139503 -114.40332031 466.43945312 C-109.43735785 469.66399925 -104.47344041 472.89169393 -99.50952148 476.11938477 C-95.28281859 478.86742544 -91.05477707 481.61336651 -86.82421875 484.35546875 C-79.01249523 489.42049663 -71.2052715 494.49273949 -63.4375 499.625 C-62.82414795 500.02678467 -62.2107959 500.42856934 -61.57885742 500.8425293 C-58.77574654 502.70392316 -56.32824813 504.57834646 -54 507 C-59.43999988 507.22522293 -64.8771965 507.38703937 -70.32080078 507.49438477 C-72.16568347 507.53919778 -74.010255 507.60027658 -75.85400391 507.67895508 C-88.37469622 508.19923371 -96.44134381 507.17168321 -106.33236694 499.29486084 C-109.1795795 497.08409629 -112.2143293 495.16146158 -115.23046875 493.19140625 C-116.49232532 492.34924313 -117.75321171 491.50562475 -119.01318359 490.66064453 C-126.41830352 485.71074987 -133.86971237 480.83047232 -141.3125 475.9375 C-142.14049103 475.3929718 -142.96848206 474.8484436 -143.82156372 474.28741455 C-158.19790316 464.83298005 -172.59016244 455.40331218 -187 446 C-189.03386639 444.67189372 -191.06772053 443.34376868 -193.1015625 442.015625 C-202.22587311 436.05922049 -211.35702525 430.11391227 -220.51000977 424.20166016 C-227.51823517 419.67178067 -234.50435506 415.10812333 -241.4921875 410.546875 C-247.80963809 406.42461281 -254.13409808 402.31362922 -260.47485352 398.22729492 C-264.69522361 395.50393494 -268.89683124 392.7536096 -273.08984375 389.98828125 C-274.14042969 389.29734375 -275.19101562 388.60640625 -276.2734375 387.89453125 C-278.35534007 386.52458795 -280.4348404 385.15098578 -282.51171875 383.7734375 C-283.4553125 383.15339844 -284.39890625 382.53335937 -285.37109375 381.89453125 C-286.21599365 381.33612549 -287.06089355 380.77771973 -287.93139648 380.20239258 C-289.88940796 378.83248941 -289.88940796 378.83248941 -292 379 C-293.6347156 381.22826414 -293.6347156 381.22826414 -295.31640625 384.140625 C-295.98961914 385.26001465 -296.66283203 386.3794043 -297.35644531 387.53271484 C-298.09188746 388.77175613 -298.82723649 390.0108527 -299.5625 391.25 C-300.3244401 392.52209978 -301.08714652 393.79374086 -301.85058594 395.06494141 C-303.44185557 397.71573006 -305.02976244 400.3684927 -306.61572266 403.02246094 C-308.87582612 406.79928679 -311.15786972 410.56237832 -313.44921875 414.3203125 C-313.80705948 414.90727905 -314.16490021 415.49424561 -314.53358459 416.09899902 C-315.24939871 417.27300919 -315.96524423 418.44700021 -316.68112183 419.62097168 C-322.53960078 429.23473146 -328.32251651 438.8902573 -334.02587891 448.59692383 C-340.66640964 459.8733556 -347.49381743 471.03744243 -354.30517578 482.21118164 C-356.03803765 484.95589947 -356.03803765 484.95589947 -357.34838867 487.83447266 C-359 490 -359 490 -361.72729492 490.56762695 C-362.80084229 490.54144287 -363.87438965 490.51525879 -364.98046875 490.48828125 C-366.14384766 490.47216797 -367.30722656 490.45605469 -368.50585938 490.43945312 C-369.72080078 490.39755859 -370.93574219 490.35566406 -372.1875 490.3125 C-373.41404297 490.28994141 -374.64058594 490.26738281 -375.90429688 490.24414062 C-378.93741559 490.18513053 -381.96810222 490.10284592 -385 490 C-383.68389438 486.45869372 -382.11907234 483.3917176 -380.0859375 480.2109375 C-379.49828613 479.2837793 -378.91063477 478.35662109 -378.30517578 477.40136719 C-377.66821777 476.40266602 -377.03125977 475.40396484 -376.375 474.375 C-370.81869672 465.57785558 -365.40416514 456.71723215 -360.125 447.75 C-354.56648217 438.31251159 -348.94614948 428.91751327 -343.25 419.5625 C-342.71108627 418.67729172 -342.71108627 418.67729172 -342.1612854 417.77420044 C-341.62669205 416.89609207 -341.62669205 416.89609207 -341.08129883 416.00024414 C-336.96795419 409.24336788 -332.87350939 402.47597111 -328.8125 395.6875 C-320.76085062 382.23481309 -312.61407832 368.83873088 -304.375 355.5 C-303.24901131 353.66727373 -302.12382244 351.83405541 -301 350 C-300.39285156 349.01966797 -300.39285156 349.01966797 -299.7734375 348.01953125 C-297.93981743 344.96116495 -296.52412407 341.87961611 -295.25 338.5625 C-293.5400394 334.13314198 -291.5085832 329.91207478 -289.359375 325.68359375 C-286.52947899 320.06994841 -283.73636489 314.44110371 -281 308.78125 C-280.67046326 308.09993515 -280.34092651 307.4186203 -280.00140381 306.71665955 C-279.00014075 304.6448225 -277.99987987 302.5725049 -277 300.5 C-272.69223581 291.57106494 -268.34771746 282.66457493 -263.90016174 273.80433655 C-260.6797004 267.38047952 -257.55007313 260.91427946 -254.4375 254.4375 C-253.22702758 251.92295304 -252.01581192 249.40876423 -250.8046875 246.89453125 C-250.49602249 246.25344421 -250.18735748 245.61235718 -249.86933899 244.95184326 C-247.58949277 240.21823708 -245.3006271 235.4890554 -243.0078125 230.76171875 C-242.67699173 230.0793364 -242.34617096 229.39695404 -242.00532532 228.69389343 C-239.36798649 223.25388935 -239.36798649 223.25388935 -238.1388855 220.72360229 C-234.10372389 212.42276944 -234.10372389 212.42276944 -230.17919922 204.06933594 C-229.87630478 203.4135556 -229.57341034 202.75777527 -229.26133728 202.0821228 C-228.42783108 200.27167585 -227.59935075 198.45891742 -226.77124023 196.64599609 C-224.73055672 192.31374975 -222.36353289 188.16230002 -220 184 C-205.50000934 183.96958131 -191.00001812 183.94908956 -176.5 183.9375 C-175.43650455 183.93664398 -174.37300911 183.93578796 -173.27728653 183.93490601 C-141.83946692 183.91252739 -110.42523004 184.01558889 -79 185 C-78.87061035 184.09435303 -78.7412207 183.18870605 -78.60791016 182.25561523 C-78.08693373 179.46556681 -77.48030361 177.44045011 -76.2734375 174.91015625 C-74.6155675 171.33597919 -73.01923331 167.74677642 -71.4765625 164.12109375 C-70.79182861 162.51657349 -70.79182861 162.51657349 -70.09326172 160.87963867 C-69.60873535 159.74373291 -69.12420898 158.60782715 -68.625 157.4375 C-63.50813735 145.46863651 -58.31674693 133.53370787 -53.08813477 121.61328125 C-52.5027525 120.27865216 -51.9173845 118.94401682 -51.33203125 117.609375 C-50.90507713 116.63599182 -50.90507713 116.63599182 -50.46949768 115.64294434 C-48.23757206 110.55083186 -46.02694896 105.44966424 -43.82055664 100.34643555 C-40.77885051 93.31326487 -37.71891733 86.30001364 -34.4375 79.375 C-30.96561367 72.02040089 -27.77667994 64.55759635 -24.59375 57.07421875 C-22.67553475 52.56837953 -20.73448058 48.07278062 -18.78125 43.58203125 C-18.50252548 42.94111038 -18.22380096 42.30018951 -17.93663025 41.6398468 C-17.36783767 40.33206347 -16.79902552 39.02428865 -16.23019409 37.71652222 C-12.0646632 28.13786735 -7.912647 18.55707821 -4.00341797 8.87011719 C-2.78122092 5.84674485 -1.51619842 2.88868136 0 0 Z " fill="#F8F8F8" transform="translate(508,49)"/>
<path d="M0 0 C4.08641257 0.73266488 7.59474154 2.68657975 11.25 4.5625 C12.22453125 5.0565332 12.22453125 5.0565332 13.21875 5.56054688 C14.81434294 6.37007565 16.40742483 7.18455042 18 8 C17.67 8.66 17.34 9.32 17 10 C17.80000353 12.77595208 18.66904925 15.46525242 19.625 18.1875 C20.18760593 19.82939079 20.75010432 21.47131843 21.3125 23.11328125 C21.59738281 23.93650879 21.88226562 24.75973633 22.17578125 25.60791016 C23.35203394 29.02169091 24.48850908 32.44776956 25.625 35.875 C26.03621094 37.07769531 26.44742188 38.28039062 26.87109375 39.51953125 C27.60601231 41.78531823 28.26931074 44.07600189 28.84765625 46.38671875 C29.26337891 47.95873047 29.26337891 47.95873047 29.6875 49.5625 C29.89761719 50.47128906 30.10773438 51.38007813 30.32421875 52.31640625 C33.1049572 56.76947691 37.43901998 58.58866366 42 61 C42.58431793 61.30952606 43.16863586 61.61905212 43.7706604 61.93795776 C48.42970617 64.3969218 53.11842312 66.79628137 57.8125 69.1875 C59.90577827 70.25624868 61.99851558 71.3260253 64.09025574 72.39778137 C65.38039873 73.05859259 66.67145086 73.71763305 67.96357727 74.3745575 C73.69483985 77.30593307 78.10928795 79.72033282 82.125 84.8125 C82.90230469 85.79089844 83.67960938 86.76929688 84.48046875 87.77734375 C85.32040209 88.85149245 86.16024302 89.92571341 87 91 C87.89126306 92.12682761 88.78320435 93.25311907 89.67578125 94.37890625 C93.76851114 99.55322899 97.82122317 104.75625168 101.82299805 110.0012207 C106.28649046 115.84851005 110.89257552 121.53366622 115.62890625 127.1640625 C118.47944293 130.57343586 121.25041704 134.04089964 124.015625 137.51953125 C126.09224486 140.11530608 128.19954579 142.6837347 130.3125 145.25 C133.68021241 149.3545794 136.98121789 153.50430352 140.25 157.6875 C144.27611101 162.83944279 148.36566711 167.93452754 152.5 173 C157.00763161 178.52337068 161.44842687 184.09184494 165.8359375 189.7109375 C169.33776455 194.18436975 172.90822679 198.59857554 176.5 203 C182.42468348 210.26335866 188.23155531 217.6123062 194 225 C199.82658932 232.45616265 205.68792878 239.8700908 211.703125 247.17578125 C214.25772268 250.3168937 216.75746105 253.49712139 219.25 256.6875 C223.3404927 261.92089247 227.49235958 267.10012438 231.6875 272.25 C232.24477783 272.93425049 232.80205566 273.61850098 233.3762207 274.32348633 C234.44540422 275.63596283 235.51465555 276.94838408 236.58398438 278.26074219 C239.75153694 282.15137054 242.8903648 286.06293143 246 290 C246.54897949 290.69480469 247.09795898 291.38960938 247.66357422 292.10546875 C249.57184238 294.52517478 251.4740738 296.94952294 253.375 299.375 C253.9949585 300.16116699 254.61491699 300.94733398 255.25366211 301.75732422 C255.83768799 302.5051416 256.42171387 303.25295898 257.0234375 304.0234375 C257.81113525 305.02769775 257.81113525 305.02769775 258.61474609 306.05224609 C259.97597787 307.96622338 261.01162446 309.87324352 262 312 C256.87008301 316.68788333 251.74728311 321.08695618 246 325 C241.84084478 320.99603714 238.1549434 316.71533399 234.5 312.25 C233.88833984 311.50556641 233.27667969 310.76113281 232.64648438 309.99414062 C227.93231551 304.22158987 223.39459815 298.3292661 218.90087891 292.38452148 C214.44663497 286.51817022 209.79825523 280.83137398 205.09204102 275.16625977 C201.01470925 270.25266879 197.03724272 265.27366081 193.11279297 260.23754883 C189.63101718 255.77871165 186.07733451 251.38243134 182.5 247 C177.99232786 241.47666343 173.55157233 235.90815403 169.1640625 230.2890625 C165.12433367 225.12848405 160.98855951 220.04903597 156.84472656 214.97192383 C152.80073008 210.00834516 148.83140873 204.99103617 144.8894043 199.94628906 C141.36033442 195.43767732 137.7519888 190.99886384 134.11328125 186.578125 C131.38410439 183.24863012 128.70305256 179.88193575 126.01953125 176.515625 C123.92827612 173.91065729 121.81043584 171.32919736 119.6875 168.75 C116.31978759 164.6454206 113.01878211 160.49569648 109.75 156.3125 C105.18610745 150.47239442 100.53072108 144.71235415 95.84350586 138.97094727 C92.28319901 134.60184019 88.77876048 130.19398712 85.3125 125.75 C80.34493261 119.38272126 75.20988377 113.17049141 70 107 C68.87851562 108.12535156 68.87851562 108.12535156 67.734375 109.2734375 C66.19305711 110.81035162 64.64564968 112.34138628 63.078125 113.8515625 C58.4296449 118.36098551 54.33812883 123.16383957 50.28515625 128.2109375 C48.09539199 130.88357285 45.82888802 133.44834878 43.5 136 C39.47273726 140.41585827 35.68646422 144.99266553 31.9453125 149.65234375 C30 152 30 152 28.1796875 153.50390625 C26.75988272 154.98562234 26.75988272 154.98562234 27.0078125 157.31640625 C28.29976026 160.81076889 30.41530873 163.21645085 32.875 165.9375 C33.88757505 167.09446871 34.89792726 168.25338594 35.90625 169.4140625 C36.42316406 170.00735352 36.94007813 170.60064453 37.47265625 171.21191406 C39.86261264 174.00987451 42.12045666 176.9051078 44.375 179.8125 C48.35470757 184.92711877 52.4011004 189.98038552 56.5 195 C61.00480645 200.51961095 65.44295979 206.08422167 69.82714844 211.69995117 C73.96192751 216.9825293 78.19585531 222.18193499 82.43652344 227.37963867 C85.79748823 231.50413796 89.09813632 235.66669669 92.34375 239.8828125 C94.27412304 242.350412 96.25885612 244.76868085 98.25 247.1875 C101.70814147 251.39128488 105.08911353 255.64651779 108.4375 259.9375 C112.74477451 265.45222482 117.17063675 270.84564492 121.66796875 276.20703125 C127.09508906 282.70684871 132.31463095 289.36930912 137.5 296.0625 C137.94601562 296.63540771 138.39203125 297.20831543 138.8515625 297.79858398 C142 301.88326086 142 301.88326086 142 303 C134.79527075 302.2583367 127.65622841 301.23730455 120.5 300.125 C118.77414673 299.85828491 118.77414673 299.85828491 117.01342773 299.58618164 C109.43146372 298.40473547 101.87383778 297.12972377 94.32421875 295.75854492 C89.95399233 294.97942624 85.57083454 294.30030876 81.18359375 293.625 C72.24080133 292.23014143 63.33978662 290.6467246 54.43856812 289.01010132 C40.82242742 286.51084674 27.21096057 284.15598351 13.49804688 282.24243164 C7.27711822 281.37123717 1.14791852 280.28558182 -5 279 C-17.39653605 276.50406187 -29.81597213 274.33163967 -42.32617188 272.48291016 C-51.2486053 271.15648721 -60.12271491 269.5964004 -69 268 C-68.08102982 275.21496097 -67.15667455 282.42921902 -66.22900391 289.64306641 C-65.91566192 292.08432309 -65.60344183 294.52572409 -65.29248047 296.96728516 C-63.36461722 312.09695627 -61.2527738 327.18073913 -58.89257812 342.24902344 C-57.7901783 349.29960926 -56.80355835 356.36181522 -55.875 363.4375 C-55.70959717 364.68466797 -55.54419434 365.93183594 -55.3737793 367.21679688 C-54.32657506 375.21419286 -53.37262484 383.2156097 -52.59521484 391.24389648 C-52.30341029 394.25175532 -51.96309843 397.21561059 -51.453125 400.1953125 C-51.02935938 402.81827558 -50.89732885 405.22370429 -50.9375 407.875 C-50.94652344 408.65617187 -50.95554687 409.43734375 -50.96484375 410.2421875 C-50.97644531 410.82226562 -50.98804688 411.40234375 -51 412 C-52.99866686 412.34123581 -54.99902542 412.6725678 -57 413 C-58.11375 413.185625 -59.2275 413.37125 -60.375 413.5625 C-64.31292864 414.03776725 -68.03629479 414.0287225 -72 414 C-72.16081055 412.74791748 -72.32162109 411.49583496 -72.48730469 410.20581055 C-76.27940156 380.50392537 -76.27940156 380.50392537 -80.53027344 350.86547852 C-81.95401695 341.46510187 -83.23565275 332.04786391 -84.5 322.625 C-84.65840363 321.44513016 -84.65840363 321.44513016 -84.82000732 320.24142456 C-85.2412341 317.10307096 -85.66223846 313.96468768 -86.08282471 310.82624817 C-87.10340494 303.21551654 -88.14111921 295.60722828 -89.1875 288 C-89.41953125 286.30351318 -89.41953125 286.30351318 -89.65625 284.57275391 C-90.41223195 279.08613277 -91.21285753 273.61114671 -92.078125 268.140625 C-92.77427337 263.66533733 -93.30089181 259.26969891 -93.5625 254.75 C-93.47035029 251.05775042 -93.47035029 251.05775042 -95 248 C-95.04092937 245.66702567 -95.04241723 243.33294775 -95 241 C-93.35425434 240.97311849 -91.70838587 240.95365877 -90.0625 240.9375 C-89.14597656 240.92589844 -88.22945313 240.91429687 -87.28515625 240.90234375 C-85 241 -85 241 -84 242 C-81.51195418 242.43240677 -79.035669 242.81112164 -76.53515625 243.15625 C-75.78664902 243.2634436 -75.03814178 243.37063721 -74.26695251 243.4810791 C-71.86601228 243.82468034 -69.46435716 244.162872 -67.0625 244.5 C-64.66425077 244.83736252 -62.26621535 245.17596567 -59.86875916 245.5189209 C-58.37457378 245.73262979 -56.87991937 245.94308883 -55.38478088 246.15002441 C-50.22517542 246.88741229 -50.22517542 246.88741229 -48 248 C-46.08828459 248.32252867 -44.17026328 248.60803657 -42.25 248.875 C-37.73564568 249.54089174 -33.3194789 250.34504519 -28.875 251.375 C-20.69011895 253.18978885 -12.41549563 254.32073492 -4.12060547 255.51245117 C3.12318364 256.55741228 10.3234889 257.72719428 17.51879883 259.06201172 C22.3658867 259.94150622 27.17935468 260.47821219 32.09375 260.7890625 C34 261 34 261 35 262 C36.86509573 262.22509776 38.73098444 262.4473444 40.6015625 262.62109375 C43.82180757 263.12982953 46.86696103 264.10153062 50 265 C61.93546491 267.57507333 74.75473273 270.30437567 87 270 C79.33411651 260.18288168 79.33411651 260.18288168 71.5 250.5 C66.71075335 244.67961661 62.06321542 238.75312 57.42041016 232.81591797 C49.68557397 222.92734602 41.93480368 213.05290024 34.00390625 203.3203125 C32.89843426 201.96354431 31.7929656 200.6067734 30.6875 199.25 C30.12764404 198.56325195 29.56778809 197.87650391 28.9909668 197.16894531 C25.41967318 192.77778273 21.91063962 188.34399245 18.4375 183.875 C13.6873852 177.77182749 8.69921612 171.89702743 3.62890625 166.05859375 C3.18434082 165.53894043 2.73977539 165.01928711 2.28173828 164.48388672 C1.07369079 163.08531288 -0.16730614 161.71539567 -1.41015625 160.34765625 C-3 158 -3 158 -2.76342773 156.06079102 C-1.92645682 153.8014781 -0.9689554 152.47768197 0.625 150.6796875 C1.1622168 150.06706055 1.69943359 149.45443359 2.25292969 148.82324219 C2.82946289 148.18032227 3.40599609 147.53740234 4 146.875 C4.58942383 146.20629883 5.17884766 145.53759766 5.78613281 144.84863281 C9.78359797 140.32398151 13.84086205 135.8535229 17.8984375 131.3828125 C20.13113312 128.85131747 22.25644655 126.25260516 24.375 123.625 C28.53145231 118.48756682 32.93609809 113.63570017 37.421875 108.7890625 C42.68832068 103.09172581 47.60203367 97.39704194 52 91 C51.36964844 90.76539063 50.73929688 90.53078125 50.08984375 90.2890625 C43.04860396 87.35150355 36.30710682 83.73916772 29.5234375 80.2578125 C27.28851286 79.14380981 25.03951118 78.12005678 22.75 77.125 C17.62043894 74.77032861 13.39596312 72.59296722 11.140625 67.19140625 C9.98584241 63.8163679 9.20713441 60.40442685 8.48120117 56.91625977 C7.69803232 53.79749148 6.28469464 50.94110296 5 48 C4.10473856 45.25184231 3.33482671 42.47234702 2.5625 39.6875 C0.95445672 34.04501821 -0.78574307 28.57531294 -3.10546875 23.17578125 C-3.40066406 22.45777344 -3.69585938 21.73976563 -4 21 C-4.41507813 20.06027344 -4.83015625 19.12054688 -5.2578125 18.15234375 C-6.22094328 14.06157248 -5.32384524 12.07843038 -3.6875 8.25 C-2.98173828 6.55617188 -2.98173828 6.55617188 -2.26171875 4.828125 C-1.53763964 3.20511176 -0.79479086 1.58958171 0 0 Z " fill="#F5BE06" transform="translate(518,80)"/>
<path d="M0 0 C10.89 0 21.78 0 33 0 C34.051875 3.2175 35.10375 6.435 36.1875 9.75 C38.48513586 16.7133741 40.94481099 23.50609961 43.87890625 30.23046875 C45.5798518 34.43245618 46.81307138 38.75770523 48.09765625 43.1015625 C48.81026035 45.39053326 49.57604763 47.51014918 50.5625 49.6875 C52.11002172 53.25352832 53.17414965 56.82125367 54.26171875 60.546875 C55.63627379 65.11417957 57.38561496 69.51473908 59.20703125 73.91796875 C63.02484882 83.22587109 66.35449809 92.66339048 69.61181641 102.18139648 C71.823523 108.63444658 74.09984781 115.05234888 76.5 121.4375 C79.47308466 129.37719805 82.19394891 137.39487784 84.875 145.4375 C85.26880859 146.61820068 85.66261719 147.79890137 86.06835938 149.01538086 C87.49782711 153.3317328 88.89674179 157.58696716 90 162 C79.77 162 69.54 162 59 162 C58.01 158.7 57.02 155.4 56 152 C55.02013237 149.56613524 54.0397671 147.13240308 53.0390625 144.70703125 C51.4743363 140.63050772 50.25632117 136.46145497 49.02734375 132.2734375 C48.04093202 129.13042217 46.92833224 126.07296351 45.7565918 122.99609375 C44.60260572 119.95156644 43.52126925 116.88264037 42.4375 113.8125 C42.19281982 113.11979004 41.94813965 112.42708008 41.69604492 111.71337891 C39.93695186 106.71440714 38.20951188 101.70485667 36.4921875 96.69140625 C36.04630754 95.39151943 35.60042537 94.09163336 35.15454102 92.79174805 C34.27169331 90.21744557 33.3925684 87.64190968 32.51538086 85.06567383 C30.16886333 78.09988191 30.16886333 78.09988191 27.41796875 71.2890625 C25.09740337 65.90637365 23.41043147 60.31080807 21.60546875 54.73828125 C19.95587087 49.70228419 18.17724677 44.83242575 16 40 C15.82984375 40.60585938 15.6596875 41.21171875 15.484375 41.8359375 C15.12085937 43.09277344 15.12085937 43.09277344 14.75 44.375 C14.51796875 45.18710937 14.2859375 45.99921875 14.046875 46.8359375 C13.20239478 49.38828443 12.26760303 51.80277574 11.23828125 54.28125 C8.21245037 61.74905074 5.87656119 69.45094069 3.4375 77.125 C2.71211305 79.40118917 1.98562903 81.67701205 1.2568512 83.95211792 C0.80727372 85.35617192 0.35963924 86.7608503 -0.08558655 88.16629028 C-1.5784802 92.83637903 -3.2482186 97.42134525 -5 102 C-12.09824695 120.84438443 -18.67499557 139.8829109 -25 159 C-25.33 159.99 -25.66 160.98 -26 162 C-35.9 162 -45.8 162 -56 162 C-55.22359829 155.78878631 -54.6059649 152.44057873 -52.25 147 C-50.00536623 141.67481385 -48.09152371 136.3493361 -46.4375 130.8125 C-45.07065413 126.26605253 -43.59883955 121.85148303 -41.6875 117.5 C-38.62859703 110.46258715 -36.32283764 103.17812148 -33.94213867 95.890625 C-32.07932735 90.1946943 -30.13728454 84.54234145 -28.0690918 78.91772461 C-26.87012882 75.64556051 -25.69706239 72.36476098 -24.52734375 69.08203125 C-24.10259766 67.89029297 -23.67785156 66.69855469 -23.24023438 65.47070312 C-22.36760163 63.02026665 -21.49520803 60.56974499 -20.62304688 58.11914062 C-18.46311132 52.06014332 -16.27956098 46.01497604 -14 40 C-9.01477767 26.7633752 -4.41895958 13.43724444 0 0 Z " fill="#F5BD04" transform="translate(110,596)"/>
<path d="M0 0 C10.56 0 21.12 0 32 0 C37.55555556 15.55555556 37.55555556 15.55555556 39.2265625 21.62109375 C40.03427805 24.10543096 41.06753897 26.44590213 42.11230469 28.83764648 C44.05976868 33.58151024 45.65085207 38.46300709 47.3125 43.3125 C47.70912842 44.46298828 48.10575684 45.61347656 48.5144043 46.79882812 C50.82521903 53.5181321 53.08942916 60.25123569 55.3125 67 C57.00259895 72.12723482 58.81342744 77.16043474 60.87890625 82.1484375 C65.3389196 93.49272234 69.11916665 105.14145931 72.87060547 116.73632812 C74.37335926 121.32425618 76.09558224 125.78688482 77.90942383 130.26025391 C79.96521229 135.42480688 81.85398536 140.65015184 83.75 145.875 C84.16121094 146.98875 84.57242188 148.1025 84.99609375 149.25 C85.38410156 150.31992187 85.77210938 151.38984375 86.171875 152.4921875 C86.6992627 153.93634033 86.6992627 153.93634033 87.23730469 155.40966797 C88 158 88 158 88 162 C78.1 162 68.2 162 58 162 C53.54605263 150.86513158 53.54605263 150.86513158 51.875 145.6875 C49.43156666 138.22316362 46.87728954 130.79840905 44.3125 123.375 C43.88187256 122.12759033 43.45124512 120.88018066 43.00756836 119.5949707 C40.82368231 113.2704218 38.63551226 106.94736539 36.4453125 100.625 C35.6090779 98.20843612 34.7731384 95.79177011 33.9375 93.375 C33.52717529 92.18849854 33.11685059 91.00199707 32.6940918 89.77954102 C29.39627127 80.21410423 26.18797875 70.62010524 23.04272461 61.00341797 C20.92126309 54.56646632 18.60352025 48.25802677 16 42 C13.99479362 45.92334743 12.35375284 49.96201559 10.75 54.0625 C10.29028809 55.23776245 10.29028809 55.23776245 9.82128906 56.43676758 C7.27747999 63.05421517 5.08377418 69.75339073 3.04199219 76.54125977 C1.63548608 81.18081835 -0.06918247 85.54506792 -2 90 C-3.01123959 93.1259992 -3.92529114 96.27037681 -4.83984375 99.42578125 C-5.72692017 102.15869345 -6.68841302 104.73395858 -7.78125 107.3828125 C-10.7339971 114.64926901 -13.10973636 122.11675771 -15.5625 129.5625 C-16.04854381 131.03069311 -16.53487028 132.49879268 -17.02148438 133.96679688 C-19.47815741 141.37032233 -19.47815741 141.37032233 -21.90185547 148.78466797 C-22.1495166 149.54537598 -22.39717773 150.30608398 -22.65234375 151.08984375 C-22.84691162 151.69562256 -23.04147949 152.30140137 -23.24194336 152.92553711 C-24.36564506 156.00060742 -25.71032705 158.99076312 -27 162 C-36.9 162 -46.8 162 -57 162 C-56.31228114 157.18596797 -55.83361291 154.02471328 -54.17578125 149.71484375 C-53.63945068 148.29727783 -53.63945068 148.29727783 -53.09228516 146.85107422 C-52.73183105 145.91021973 -52.37137695 144.96936523 -52 144 C-51.36524496 142.27332474 -50.73365468 140.54548226 -50.10546875 138.81640625 C-49.79359619 137.96256348 -49.48172363 137.1087207 -49.16040039 136.22900391 C-46.23596441 128.21377436 -43.35402388 120.18750111 -40.5625 112.125 C-37.59136287 103.54910013 -34.42918781 95.05104269 -31.19555664 86.57080078 C-28.61481078 79.76992709 -26.25369679 72.91583701 -24 66 C-20.2292741 54.45215192 -20.2292741 54.45215192 -18.0625 49.1875 C-15.35816625 42.58044146 -13.2159407 35.78190769 -11 29 C-7.73300625 19.07158283 -4.25506247 9.57389057 0 0 Z " fill="#F5BD04" transform="translate(938,596)"/>
<path d="M0 0 C1.64574566 -0.02688151 3.29161413 -0.04634123 4.9375 -0.0625 C5.85402344 -0.07410156 6.77054687 -0.08570313 7.71484375 -0.09765625 C10 0 10 0 11 1 C13.48804582 1.43240677 15.964331 1.81112164 18.46484375 2.15625 C19.21335098 2.2634436 19.96185822 2.37063721 20.73304749 2.4810791 C23.13398772 2.82468034 25.53564284 3.162872 27.9375 3.5 C30.33574923 3.83736252 32.73378465 4.17596567 35.13124084 4.5189209 C36.62542622 4.73262979 38.12008063 4.94308883 39.61521912 5.15002441 C44.77482458 5.88741229 44.77482458 5.88741229 47 7 C48.91171541 7.32252867 50.82973672 7.60803657 52.75 7.875 C57.26435432 8.54089174 61.6805211 9.34504519 66.125 10.375 C74.30988105 12.18978885 82.58450437 13.32073492 90.87939453 14.51245117 C98.12318364 15.55741228 105.3234889 16.72719428 112.51879883 18.06201172 C117.3658867 18.94150622 122.17935468 19.47821219 127.09375 19.7890625 C129 20 129 20 130 21 C131.86509573 21.22509776 133.73098444 21.4473444 135.6015625 21.62109375 C138.82180757 22.12982953 141.86696103 23.10153062 145 24 C153.781195 25.89454045 162.57556913 27.25938666 171.4921875 28.30297852 C175.56971338 28.79000514 179.49810177 29.46745501 183.484375 30.43359375 C187.03238731 31.23244745 190.6077882 31.86314292 194.1875 32.5 C194.92299072 32.63736572 195.65848145 32.77473145 196.41625977 32.91625977 C199.92634782 33.55274445 203.25006151 34.01174957 206.82421875 34.1796875 C213.17804855 34.52918309 217.02853886 35.30974368 221.42700195 40.17724609 C223.28477405 42.45371256 225.02801353 44.79027994 226.71972656 47.19238281 C227.99701385 48.99578385 229.32535765 50.74610117 230.6796875 52.4921875 C237 60.6793453 237 60.6793453 237 62 C229.79527075 61.2583367 222.65622841 60.23730455 215.5 59.125 C213.77414673 58.85828491 213.77414673 58.85828491 212.01342773 58.58618164 C204.43146372 57.40473547 196.87383778 56.12972377 189.32421875 54.75854492 C184.95399233 53.97942624 180.57083454 53.30030876 176.18359375 52.625 C167.24080133 51.23014143 158.33978662 49.6467246 149.43856812 48.01010132 C135.82242742 45.51084674 122.21096057 43.15598351 108.49804688 41.24243164 C102.27711822 40.37123717 96.14791852 39.28558182 90 38 C77.60346395 35.50406187 65.18402787 33.33163967 52.67382812 31.48291016 C43.7513947 30.15648721 34.87728509 28.5964004 26 27 C26.91897018 34.21496097 27.84332545 41.42921902 28.77099609 48.64306641 C29.08433808 51.08432309 29.39655817 53.52572409 29.70751953 55.96728516 C31.63538278 71.09695627 33.7472262 86.18073913 36.10742188 101.24902344 C37.2098217 108.29960926 38.19644165 115.36181522 39.125 122.4375 C39.29040283 123.68466797 39.45580566 124.93183594 39.6262207 126.21679688 C40.67342494 134.21419286 41.62737516 142.2156097 42.40478516 150.24389648 C42.69658971 153.25175532 43.03690157 156.21561059 43.546875 159.1953125 C43.97064062 161.81827558 44.10267115 164.22370429 44.0625 166.875 C44.05347656 167.65617188 44.04445313 168.43734375 44.03515625 169.2421875 C44.02355469 169.82226562 44.01195312 170.40234375 44 171 C42.00133314 171.34123581 40.00097458 171.6725678 38 172 C36.88625 172.185625 35.7725 172.37125 34.625 172.5625 C30.68707136 173.03776725 26.96370521 173.0287225 23 173 C22.83918945 171.74791748 22.67837891 170.49583496 22.51269531 169.20581055 C18.72059844 139.50392537 18.72059844 139.50392537 14.46972656 109.86547852 C13.04598305 100.46510187 11.76434725 91.04786391 10.5 81.625 C10.39439758 80.8384201 10.28879517 80.05184021 10.17999268 79.24142456 C9.7587659 76.10307096 9.33776154 72.96468768 8.91717529 69.82624817 C7.89659506 62.21551654 6.85888079 54.60722828 5.8125 47 C5.58046875 45.30351318 5.58046875 45.30351318 5.34375 43.57275391 C4.58776805 38.08613277 3.78714247 32.61114671 2.921875 27.140625 C2.22572663 22.66533733 1.69910819 18.26969891 1.4375 13.75 C1.52964971 10.05775042 1.52964971 10.05775042 0 7 C-0.04092937 4.66702567 -0.04241723 2.33294775 0 0 Z " fill="#F8F8F8" transform="translate(423,321)"/>
<path d="M0 0 C37.62 0 75.24 0 114 0 C114 8.25 114 16.5 114 25 C99.81 25 85.62 25 71 25 C71 70.21 71 115.42 71 162 C61.43 162 51.86 162 42 162 C42 116.79 42 71.58 42 25 C28.14 25 14.28 25 0 25 C0 16.75 0 8.5 0 0 Z " fill="#F4BC04" transform="translate(607,596)"/>
<path d="M0 0 C4.28963967 1.54626546 6.47944655 4.80048657 9.125 8.3125 C9.60509521 8.93624512 10.08519043 9.55999023 10.57983398 10.20263672 C12.06080381 12.12942978 13.53135097 14.06380538 15 16 C16.68472486 18.21046342 18.37255099 20.41852842 20.0625 22.625 C20.67254883 23.42284912 20.67254883 23.42284912 21.29492188 24.23681641 C24.94743776 28.98769186 28.77108687 33.578012 32.62890625 38.1640625 C35.47944293 41.57343586 38.25041704 45.04089964 41.015625 48.51953125 C43.09224486 51.11530608 45.19954579 53.6837347 47.3125 56.25 C50.68021241 60.3545794 53.98121789 64.50430352 57.25 68.6875 C61.27611101 73.83944279 65.36566711 78.93452754 69.5 84 C74.00763161 89.52337068 78.44842687 95.09184494 82.8359375 100.7109375 C86.33776455 105.18436975 89.90822679 109.59857554 93.5 114 C99.42468348 121.26335866 105.23155531 128.6123062 111 136 C116.82658932 143.45616265 122.68792878 150.8700908 128.703125 158.17578125 C131.25772268 161.3168937 133.75746105 164.49712139 136.25 167.6875 C140.3404927 172.92089247 144.49235958 178.10012438 148.6875 183.25 C149.24477783 183.93425049 149.80205566 184.61850098 150.3762207 185.32348633 C151.44540422 186.63596283 152.51465555 187.94838408 153.58398438 189.26074219 C156.75153694 193.15137054 159.8903648 197.06293143 163 201 C163.54897949 201.69480469 164.09795898 202.38960937 164.66357422 203.10546875 C166.57184238 205.52517478 168.4740738 207.94952294 170.375 210.375 C171.30493774 211.55425049 171.30493774 211.55425049 172.25366211 212.75732422 C173.12970093 213.87905029 173.12970093 213.87905029 174.0234375 215.0234375 C174.54856934 215.69294434 175.07370117 216.36245117 175.61474609 217.05224609 C176.97597787 218.96622338 178.01162446 220.87324352 179 223 C173.87008301 227.68788333 168.74728311 232.08695618 163 236 C158.84084478 231.99603714 155.1549434 227.71533399 151.5 223.25 C150.88833984 222.50556641 150.27667969 221.76113281 149.64648438 220.99414062 C144.93231551 215.22158987 140.39459815 209.3292661 135.90087891 203.38452148 C131.44663497 197.51817022 126.79825523 191.83137398 122.09204102 186.16625977 C118.01470925 181.25266879 114.03724272 176.27366081 110.11279297 171.23754883 C106.63101718 166.77871165 103.07733451 162.38243134 99.5 158 C94.99232786 152.47666343 90.55157233 146.90815403 86.1640625 141.2890625 C82.12433367 136.12848405 77.98855951 131.04903597 73.84472656 125.97192383 C69.80073008 121.00834516 65.83140873 115.99103617 61.8894043 110.94628906 C58.36033442 106.43767732 54.7519888 101.99886384 51.11328125 97.578125 C48.38410439 94.24863012 45.70305256 90.88193575 43.01953125 87.515625 C40.92827612 84.91065729 38.81043584 82.32919736 36.6875 79.75 C33.31978759 75.6454206 30.01878211 71.49569648 26.75 67.3125 C22.18610745 61.47239442 17.53072108 55.71235415 12.84350586 49.97094727 C8.82490153 45.0394306 4.87607301 40.05822993 0.97949219 35.02978516 C-1.25954621 32.15516481 -3.54248136 29.34477387 -5.94140625 26.6015625 C-6.41296143 26.05790039 -6.8845166 25.51423828 -7.37036133 24.95410156 C-8.66873906 23.46800933 -9.982328 21.99524626 -11.296875 20.5234375 C-13 18 -13 18 -13.0390625 15.9765625 C-11.60313431 13.24506 -9.73937331 11.24438332 -7.625 9 C-4.90645773 6.09549882 -2.32078013 3.23411941 0 0 Z " fill="#F8F8F8" transform="translate(601,169)"/>
<path d="M0 0 C9.57 0 19.14 0 29 0 C29 45.21 29 90.42 29 137 C46.49 137 63.98 137 82 137 C82 145.25 82 153.5 82 162 C54.94 162 27.88 162 0 162 C0 108.54 0 55.08 0 0 Z " fill="#F4BC03" transform="translate(368,596)"/>
<path d="M0 0 C0.33 0.66 0.66 1.32 1 2 C-0.89515353 5.74623373 -3.37268608 8.72081913 -6.1875 11.8125 C-6.90292969 12.60269531 -7.61835937 13.39289063 -8.35546875 14.20703125 C-8.89816406 14.79871094 -9.44085937 15.39039063 -10 16 C-10.99 15.67 -11.98 15.34 -13 15 C-12.22914063 14.16855469 -11.45828125 13.33710938 -10.6640625 12.48046875 C-9.6509335 11.38291233 -8.63791863 10.28525056 -7.625 9.1875 C-7.11710938 8.64029297 -6.60921875 8.09308594 -6.0859375 7.52929688 C-3.84783697 5.09977985 -1.83620888 2.75431332 0 0 Z " fill="#DFB003" transform="translate(533,214)"/>
<path d="M0 0 C1.32 0.66 2.64 1.32 4 2 C2 4 2 4 -0.3125 5.3125 C-3.32560356 7.20444875 -5.56202771 9.422715 -8 12 C-8.66 11.67 -9.32 11.34 -10 11 C-9.52949219 10.54109375 -9.05898438 10.0821875 -8.57421875 9.609375 C-3.96631602 5.08450705 -3.96631602 5.08450705 0 0 Z " fill="#F3ECD5" transform="translate(601,169)"/>
<path d="M0 0 C0.66 0.33 1.32 0.66 2 1 C2.625 4.0625 2.625 4.0625 3 7 C1.35 7 -0.3 7 -2 7 C-2 7.66 -2 8.32 -2 9 C-2.66 9 -3.32 9 -4 9 C-2.94124926 5.59687262 -1.99097846 2.98646769 0 0 Z " fill="#2F2D26" transform="translate(512,96)"/>
<path d="M0 0 C0.66 0 1.32 0 2 0 C0.44499019 3.81684226 -2.03595495 6.19195732 -5 9 C-5.66 8.67 -6.32 8.34 -7 8 C-5.88200014 6.66079162 -4.75538103 5.32877444 -3.625 4 C-2.68527344 2.88625 -2.68527344 2.88625 -1.7265625 1.75 C-1.15679688 1.1725 -0.58703125 0.595 0 0 Z " fill="#E0B203" transform="translate(564,179)"/>
<path d="M0 0 C1 3 1 3 -0.75 6.5625 C-2.34738472 9.33408171 -3.19678044 10.13118696 -6 12 C-4.43358249 7.69235185 -2.31663844 3.93828536 0 0 Z " fill="#29292A" transform="translate(172,499)"/>
<path d="M0 0 C1.98 0.66 3.96 1.32 6 2 C4.515 4.475 4.515 4.475 3 7 C0.64046906 4.64046906 0.50858587 3.22104383 0 0 Z " fill="#221E10" transform="translate(534,89)"/>
<path d="M0 0 C0.66 0.33 1.32 0.66 2 1 C-1.465 3.97 -1.465 3.97 -5 7 C-5.66 6.34 -6.32 5.68 -7 5 C-4.69 3.35 -2.38 1.7 0 0 Z " fill="#20201F" transform="translate(845,411)"/>
<path d="M0 0 C0.6875 1.6875 0.6875 1.6875 1 4 C-0.3125 6.75 -0.3125 6.75 -2 9 C-2.66 9 -3.32 9 -4 9 C-2.94124926 5.59687262 -1.99097846 2.98646769 0 0 Z " fill="#373637" transform="translate(296,270)"/>
<path d="M0 0 C0.33 0.66 0.66 1.32 1 2 C-0.1875 4.5625 -0.1875 4.5625 -2 7 C-3.32 7.33 -4.64 7.66 -6 8 C-4.02 5.36 -2.04 2.72 0 0 Z " fill="#D3A301" transform="translate(533,214)"/>
<path d="M0 0 C1 3 1 3 -0.25 5.5625 C-2 8 -2 8 -5 10 C-3.66511872 6.40608886 -2.03977277 3.24509304 0 0 Z " fill="#29292A" transform="translate(184,479)"/>
<path d="M0 0 C1 3 1 3 -0.25 5.5625 C-2 8 -2 8 -5 10 C-3.66511872 6.40608886 -2.03977277 3.24509304 0 0 Z " fill="#CFCECF" transform="translate(179,445)"/>
</svg>
